# xmcd
#
# Track frame offsets:
#	150
#	19420
#	32798
#	46895
#	60737
#	79141
#	94651
#	124330
#	142743
#	166200
#	185081
#	209650
#	219399
#
# Disc length: 3121 seconds
#
# Revision: 1
# Processed by: cddbd v1.5.2PL0 Copyright (c) Steve Scherf et al.
# Submitted via: audiograbber 1.83.01
#
DISCID=ba0c2f0d
DTITLE=Devon Andersen - Devon Andersen
DYEAR=2005
DGENRE=Country
TTITLE0=One Ways
TTITLE1=Irreconcilable Distances
TTITLE2=I Wish You Could았e Seen Him
TTITLE3=Jimmy Buffet압 Brother
TTITLE4=Hold Everything
TTITLE5=Almost Already Gone
TTITLE6=Tracy압 Song
TTITLE7=Slip Away (red-headed Boy)
TTITLE8=Electronic Tears
TTITLE9=Grandma압 Goodbye Song
TTITLE10=Blizzard
TTITLE11=Surf Song
TTITLE12=Waiting For The Road To Bend
EXTD=
EXTT0=
EXTT1=
EXTT2=
EXTT3=
EXTT4=
EXTT5=
EXTT6=
EXTT7=
EXTT8=
EXTT9=
EXTT10=
EXTT11=
EXTT12=
PLAYORDER=
